<svg width="16" height="16" viewBox="0 0 16 16" fill="none" xmlns="http://www.w3.org/2000/svg">
<rect width="16" height="16" fill="white"/>
<path fill-rule="evenodd" clip-rule="evenodd" d="M10.3593 2.35316C10.3755 2.36529 10.3939 2.3717 10.4126 2.37177C10.4319 2.37108 10.4507 2.36367 10.467 2.35029L11.0473 1.89198L11.6645 2.35172C11.6811 2.36429 11.6998 2.37091 11.719 2.37091C11.7381 2.37091 11.7568 2.36429 11.7734 2.35172C11.7899 2.33923 11.8035 2.32128 11.8131 2.29967C11.8226 2.27807 11.8277 2.25355 11.8278 2.22855V0.127468C11.8282 0.103207 11.8266 0.0791608 11.823 0.0557362L12.4388 0.00245978C12.8226 -0.030739 13.1499 0.276466 13.1403 0.660707L12.8101 13.8054C12.8023 14.1147 12.5754 14.3748 12.2695 14.4252L2.75093 15.9913C2.35256 16.0568 1.99227 15.7456 2.00013 15.3428L2.27082 1.46068C2.27724 1.13117 2.53174 0.859588 2.86077 0.831121L10.3037 0.18718V2.22855C10.3038 2.25393 10.3089 2.27884 10.3187 2.30073C10.3284 2.32263 10.3424 2.34072 10.3593 2.35316ZM10.4328 9.13241C10.4328 10.6222 9.15419 11.8302 7.57814 11.8302C6.00212 11.8302 4.72345 10.6222 4.72345 9.13241C4.72345 7.54193 6.60042 5.14376 7.31052 4.29464C7.32551 4.27396 7.34679 4.25865 7.37121 4.25097C7.39565 4.24331 7.42189 4.2437 7.44608 4.25208C7.47028 4.26045 7.4911 4.27639 7.50547 4.2975C7.51983 4.31861 7.52696 4.34378 7.5258 4.36925C7.46514 5.07983 7.50679 6.60042 8.78427 7.35835C8.80982 7.3756 8.8411 7.38228 8.87151 7.37697C8.90192 7.37168 8.92907 7.3548 8.9472 7.32994C9.10732 7.09509 9.19986 6.82112 9.21485 6.53767C9.21624 6.51163 9.22621 6.48678 9.24324 6.46695C9.26026 6.44715 9.28336 6.43349 9.30899 6.4281C9.33461 6.42269 9.3613 6.42586 9.38491 6.4371C9.40855 6.44836 9.42777 6.46706 9.43966 6.49028C9.98324 7.38086 10.4328 8.35316 10.4328 9.13241ZM7.63975 9.19753C7.63975 9.01955 7.78435 8.87528 7.96268 8.87528C8.14104 8.87528 8.28561 9.01955 8.28561 9.19753V9.84204C8.28561 10.02 8.14104 10.1643 7.96268 10.1643C7.78435 10.1643 7.63975 10.02 7.63975 9.84204V9.19753ZM9.02189 8.87528C8.84355 8.87528 8.69896 9.01955 8.69896 9.19753V9.84204C8.69896 10.02 8.84355 10.1643 9.02189 10.1643C9.20025 10.1643 9.34482 10.02 9.34482 9.84204V9.19753C9.34482 9.01955 9.20025 8.87528 9.02189 8.87528Z" fill="#12B282"/>
</svg>
