<svg width="2286" height="621" viewBox="0 0 2286 621" fill="none" xmlns="http://www.w3.org/2000/svg">
<path fill-rule="evenodd" clip-rule="evenodd" d="M323.572 91.2777C324.202 91.7483 324.913 91.997 325.637 91.9999C326.383 91.973 327.11 91.6854 327.744 91.1666L350.204 73.3888L374.097 91.2222C374.738 91.7098 375.464 91.9665 376.204 91.9665C376.944 91.9665 377.67 91.7098 378.311 91.2222C378.948 90.7374 379.477 90.0414 379.847 89.2032C380.217 88.365 380.413 87.4139 380.418 86.4444V4.94439C380.434 4.00332 380.37 3.0706 380.232 2.16199L404.068 0.0954142C418.922 -1.19235 431.593 10.724 431.22 25.6285L418.439 535.505C418.138 547.502 409.355 557.593 397.513 559.545L29.0671 620.293C13.6471 622.835 -0.299163 610.765 0.00488092 595.139L10.4829 56.659C10.7316 43.8776 20.5828 33.343 33.3188 32.2388L321.423 7.26064V86.4444C321.424 87.4288 321.624 88.3951 322.001 89.2444C322.379 90.0936 322.921 90.7954 323.572 91.2777ZM326.42 354.242C326.42 412.031 276.926 458.887 215.92 458.887C154.915 458.887 105.42 412.031 105.42 354.242C105.42 292.548 178.074 199.524 205.561 166.587C206.141 165.785 206.965 165.191 207.91 164.893C208.856 164.596 209.872 164.611 210.808 164.936C211.745 165.261 212.551 165.879 213.107 166.698C213.663 167.517 213.939 168.493 213.894 169.481C211.546 197.044 213.158 256.027 262.607 285.427C263.596 286.096 264.807 286.355 265.984 286.149C267.161 285.944 268.212 285.289 268.914 284.325C275.112 275.215 278.694 264.588 279.274 253.593C279.328 252.583 279.714 251.619 280.373 250.85C281.032 250.082 281.926 249.552 282.918 249.343C283.91 249.133 284.943 249.256 285.857 249.692C286.772 250.129 287.516 250.854 287.976 251.755C309.017 286.3 326.42 324.015 326.42 354.242ZM218.305 356.768C218.305 349.864 223.902 344.268 230.805 344.268C237.709 344.268 243.305 349.864 243.305 356.768V381.768C243.305 388.671 237.709 394.268 230.805 394.268C223.902 394.268 218.305 388.671 218.305 381.768V356.768ZM271.805 344.268C264.902 344.268 259.305 349.864 259.305 356.768V381.768C259.305 388.671 264.902 394.268 271.805 394.268C278.709 394.268 284.305 388.671 284.305 381.768V356.768C284.305 349.864 278.709 344.268 271.805 344.268Z" fill="#FF5F33"/>
<path d="M1852.74 220.777C1854.5 220.777 1855.99 221.303 1857.21 222.353C1858.44 223.404 1859.05 224.805 1859.05 226.557C1859.05 227.608 1858.79 228.658 1858.26 229.709L1767.63 442.503L1766.84 443.816L1720.34 554.416C1718.59 558.795 1715.61 560.984 1711.41 560.984H1672.26C1666.31 560.984 1663.33 558.882 1663.33 554.679C1663.33 553.453 1663.77 551.527 1664.65 548.899L1712.2 433.571L1625.24 229.709C1624.71 228.658 1624.45 227.608 1624.45 226.557C1624.45 224.805 1625.06 223.404 1626.29 222.353C1627.52 221.303 1629.01 220.777 1630.76 220.777H1676.47C1678.74 220.777 1680.76 221.39 1682.51 222.616C1684.26 223.842 1685.49 225.418 1686.19 227.345L1741.88 377.088L1797.31 227.345C1798.01 225.418 1799.24 223.842 1800.99 222.616C1802.74 221.39 1804.76 220.777 1807.03 220.777H1852.74Z" fill="#FF4D1D"/>
<path d="M2059.38 234.963C2061.13 236.189 2062.01 237.853 2062.01 239.955C2062.01 241.531 2061.48 243.107 2060.43 244.684L2040.73 275.158C2039.5 277.435 2037.58 278.573 2034.95 278.573C2033.37 278.573 2032.15 278.135 2031.27 277.259L2029.43 275.683C2024.53 271.83 2018.84 268.94 2012.36 267.014C2005.88 265.087 1999.57 264.124 1993.44 264.124C1982.93 264.124 1973.21 266.664 1964.28 271.743C1955.52 276.646 1948.52 283.389 1943.26 291.971C1938.18 300.553 1935.65 309.923 1935.65 320.081V441.189C1935.65 446.268 1933.19 448.808 1928.29 448.808H1886.26C1881.35 448.808 1878.9 446.268 1878.9 441.189V228.133C1878.9 225.856 1879.51 224.105 1880.74 222.879C1882.14 221.478 1884.07 220.777 1886.52 220.777H1919.88C1924.09 220.777 1926.54 222.353 1927.24 225.506L1931.97 251.251C1940.02 239.692 1950.27 230.585 1962.7 223.93C1975.31 217.099 1988.45 213.684 2002.11 213.684C2013.32 213.684 2023.92 215.523 2033.9 219.201C2044.06 222.879 2052.55 228.133 2059.38 234.963Z" fill="#FF4D1D"/>
<path d="M2171.44 214.209C2193.33 214.209 2213.12 219.639 2230.81 230.497C2248.5 241.356 2262.16 256.068 2271.8 274.632C2281.6 293.022 2286.33 313.163 2285.98 335.055C2285.81 342.411 2283.35 348.191 2278.63 352.394C2273.9 356.422 2268.29 358.436 2261.81 358.436H2112.59C2117.32 371.747 2125.2 382.693 2136.24 391.275C2147.45 399.681 2160.06 403.885 2174.07 403.885C2189.13 403.885 2205.24 397.93 2222.41 386.021C2224.33 384.97 2226 384.444 2227.4 384.444C2229.32 384.444 2231.08 385.495 2232.65 387.597L2241.85 400.469C2246.05 406.074 2249.47 410.803 2252.09 414.656C2253.14 416.407 2253.67 418.158 2253.67 419.91C2253.67 422.011 2252.79 423.85 2251.04 425.427C2227.57 445.568 2201.65 455.638 2173.28 455.638C2151.04 455.638 2130.55 450.209 2111.81 439.35C2093.24 428.492 2078.44 413.868 2067.41 395.478C2056.55 376.913 2051.12 356.685 2051.12 334.792C2051.12 312.725 2056.38 292.496 2066.88 274.107C2077.57 255.717 2092.1 241.181 2110.49 230.497C2128.88 219.639 2149.2 214.209 2171.44 214.209ZM2170.92 269.904C2156.03 269.904 2143.07 274.107 2132.04 282.514C2121 290.745 2113.82 301.691 2110.49 315.352H2226.87C2223.72 301.691 2217.24 290.745 2207.43 282.514C2197.62 274.107 2185.45 269.904 2170.92 269.904Z" fill="#FF4D1D"/>
<path d="M693.982 213.684C712.721 213.684 729.009 217.887 742.845 226.294C756.681 234.701 767.277 246.698 774.633 262.285C781.989 277.872 785.667 296.087 785.667 316.928V440.927C785.667 443.203 784.966 445.042 783.565 446.443C782.339 447.669 780.5 448.282 778.048 448.282H736.015C733.563 448.282 731.636 447.669 730.235 446.443C729.009 445.042 728.396 443.203 728.396 440.927V316.666C728.396 307.734 726.12 299.59 721.566 292.234C717.187 284.703 711.145 278.836 703.439 274.632C695.908 270.429 687.677 268.327 678.745 268.327C669.287 268.327 660.53 270.604 652.474 275.158C644.417 279.536 638.025 285.754 633.296 293.81C628.567 301.691 626.203 310.536 626.203 320.344V441.189C626.203 446.268 623.751 448.808 618.847 448.808H576.814C571.91 448.808 569.458 446.268 569.458 441.189V228.133C569.458 225.856 570.071 224.105 571.297 222.879C572.698 221.478 574.625 220.777 577.077 220.777H610.44C614.644 220.777 617.096 222.354 617.796 225.506L622.262 249.15C630.669 238.116 641.09 229.447 653.525 223.142C666.135 216.837 679.62 213.684 693.982 213.684Z" fill="#FF4D1D"/>
<path d="M811.559 335.055C811.559 312.988 816.988 292.759 827.847 274.37C838.881 255.805 853.768 241.181 872.507 230.497C891.247 219.639 911.826 214.21 934.244 214.21C956.486 214.21 976.978 219.639 995.717 230.497C1014.46 241.181 1029.26 255.805 1040.12 274.37C1050.97 292.759 1056.4 312.988 1056.4 335.055C1056.4 357.123 1050.89 377.351 1039.85 395.741C1028.99 414.13 1014.19 428.754 995.455 439.613C976.89 450.296 956.486 455.638 934.244 455.638C911.826 455.638 891.247 450.296 872.507 439.613C853.768 428.93 838.881 414.393 827.847 396.003C816.988 377.439 811.559 357.123 811.559 335.055ZM868.829 335.055C868.829 346.79 871.719 357.648 877.499 367.631C883.278 377.614 891.16 385.583 901.143 391.537C911.125 397.317 922.072 400.207 933.981 400.207C945.891 400.207 956.837 397.317 966.82 391.537C976.978 385.583 984.946 377.702 990.726 367.894C996.506 357.911 999.395 346.965 999.395 335.055C999.395 323.146 996.506 312.2 990.726 302.217C984.946 292.059 976.978 284.09 966.82 278.31C956.837 272.356 945.891 269.378 933.981 269.378C922.072 269.378 911.125 272.356 901.143 278.31C891.16 284.09 883.278 292.059 877.499 302.217C871.719 312.2 868.829 323.146 868.829 335.055Z" fill="#FF4D1D"/>
<path d="M1060.23 228.133C1060.23 223.404 1062.59 221.04 1067.32 221.04H1093.07V156.151C1093.07 151.948 1095.08 149.146 1099.11 147.744L1141.93 130.931C1143.33 130.581 1144.29 130.406 1144.82 130.406C1146.57 130.406 1147.88 131.019 1148.76 132.245C1149.81 133.471 1150.34 135.134 1150.34 137.236V221.04H1204.72C1209.45 221.04 1211.81 223.404 1211.81 228.133V268.327C1211.81 273.056 1209.45 275.421 1204.72 275.421H1150.34V441.977C1150.34 446.706 1148.06 449.07 1143.51 449.07H1100.42C1098.15 449.07 1096.39 448.458 1095.17 447.232C1093.94 446.006 1093.33 444.254 1093.33 441.977V275.421H1067.32C1062.59 275.421 1060.23 273.056 1060.23 268.327V228.133Z" fill="#FF4D1D"/>
<path d="M1324.66 214.21C1346.55 214.21 1366.34 219.639 1384.03 230.497C1401.72 241.356 1415.38 256.068 1425.01 274.632C1434.82 293.022 1439.55 313.163 1439.2 335.055C1439.02 342.411 1436.57 348.191 1431.84 352.394C1427.12 356.422 1421.51 358.436 1415.03 358.436H1265.81C1270.54 371.747 1278.42 382.693 1289.46 391.275C1300.67 399.681 1313.28 403.885 1327.29 403.885C1342.35 403.885 1358.46 397.93 1375.62 386.021C1377.55 384.97 1379.22 384.444 1380.62 384.444C1382.54 384.444 1384.29 385.495 1385.87 387.597L1395.07 400.47C1399.27 406.074 1402.68 410.803 1405.31 414.656C1406.36 416.407 1406.89 418.159 1406.89 419.91C1406.89 422.012 1406.01 423.851 1404.26 425.427C1380.79 445.568 1354.87 455.638 1326.5 455.638C1304.26 455.638 1283.76 450.209 1265.02 439.35C1246.46 428.492 1231.66 413.868 1220.63 395.478C1209.77 376.913 1204.34 356.685 1204.34 334.793C1204.34 312.725 1209.59 292.497 1220.1 274.107C1230.79 255.717 1245.32 241.181 1263.71 230.497C1282.1 219.639 1302.42 214.21 1324.66 214.21ZM1324.13 269.904C1309.25 269.904 1296.29 274.107 1285.25 282.514C1274.22 290.745 1267.04 301.691 1263.71 315.352H1380.09C1376.94 301.691 1370.46 290.745 1360.65 282.514C1350.84 274.107 1338.67 269.904 1324.13 269.904Z" fill="#FF4D1D"/>
<path d="M1643.21 69.9829C1644.43 70.5083 1645.4 71.2964 1646.1 72.3473C1646.8 73.3981 1647.15 74.5365 1647.15 75.7625C1647.15 76.8133 1646.89 77.8641 1646.36 78.915L1631.39 118.058C1630.34 120.861 1628.5 122.262 1625.87 122.262C1624.82 122.262 1623.77 121.999 1622.72 121.474C1615.71 118.671 1608.36 117.27 1600.65 117.27C1581.03 117.27 1565.62 123.4 1554.41 135.66C1543.38 147.744 1537.86 164.383 1537.86 185.574V221.303H1603.01C1605.29 221.303 1607.04 221.916 1608.27 223.142C1609.67 224.192 1610.37 225.856 1610.37 228.133V268.327C1610.37 270.604 1609.67 272.356 1608.27 273.582C1607.04 274.808 1605.29 275.421 1603.01 275.421H1537.86V441.715C1537.86 446.443 1535.5 448.808 1530.77 448.808H1487.95C1483.22 448.808 1480.86 446.443 1480.86 441.715V275.421H1458.79C1456.51 275.421 1454.67 274.808 1453.27 273.582C1452.04 272.356 1451.43 270.604 1451.43 268.327V228.133C1451.43 223.579 1453.88 221.303 1458.79 221.303H1480.86V185.049C1480.86 159.304 1485.58 137.061 1495.04 118.321C1504.67 99.4062 1518.42 84.9573 1536.29 74.9744C1554.15 64.9915 1575.34 60 1599.86 60C1607.39 60 1614.92 60.8757 1622.45 62.6271C1629.99 64.3785 1636.9 66.8304 1643.21 69.9829Z" fill="#FF4D1D"/>
</svg>
