<svg width="432" height="621" viewBox="0 0 432 621" fill="none" xmlns="http://www.w3.org/2000/svg">
<path fill-rule="evenodd" clip-rule="evenodd" d="M323.572 91.2778C324.202 91.7484 324.913 91.9971 325.637 92C326.383 91.9731 327.11 91.6855 327.744 91.1667L350.204 73.3889L374.097 91.2222C374.738 91.7098 375.464 91.9665 376.204 91.9665C376.944 91.9665 377.67 91.7098 378.311 91.2222C378.948 90.7375 379.477 90.0414 379.847 89.2032C380.217 88.3651 380.414 87.414 380.418 86.4444V4.94444C380.434 4.00336 380.371 3.07061 380.232 2.16198L404.068 0.0954143C418.922 -1.19235 431.593 10.724 431.22 25.6285L418.439 535.505C418.138 547.502 409.355 557.593 397.513 559.545L29.0671 620.293C13.6471 622.835 -0.299163 610.765 0.00488092 595.139L10.4829 56.659C10.7316 43.8776 20.5828 33.343 33.3188 32.2388L321.423 7.26063V86.4444C321.424 87.4289 321.624 88.3952 322.001 89.2444C322.379 90.0937 322.921 90.7954 323.572 91.2778ZM326.42 354.242C326.42 412.031 276.926 458.887 215.92 458.887C154.915 458.887 105.42 412.031 105.42 354.242C105.42 292.548 178.074 199.524 205.561 166.587C206.141 165.785 206.965 165.191 207.91 164.893C208.856 164.596 209.872 164.611 210.808 164.936C211.745 165.261 212.551 165.879 213.107 166.698C213.663 167.517 213.939 168.493 213.894 169.481C211.546 197.044 213.158 256.027 262.607 285.427C263.596 286.096 264.807 286.355 265.984 286.149C267.161 285.944 268.212 285.289 268.914 284.325C275.112 275.215 278.694 264.588 279.274 253.593C279.328 252.583 279.714 251.619 280.373 250.85C281.032 250.082 281.926 249.552 282.918 249.343C283.91 249.133 284.943 249.256 285.857 249.692C286.772 250.129 287.516 250.854 287.976 251.755C309.017 286.3 326.42 324.015 326.42 354.242ZM218.305 356.768C218.305 349.864 223.902 344.268 230.805 344.268C237.709 344.268 243.305 349.864 243.305 356.768V381.768C243.305 388.671 237.709 394.268 230.805 394.268C223.902 394.268 218.305 388.671 218.305 381.768V356.768ZM271.805 344.268C264.902 344.268 259.305 349.864 259.305 356.768V381.768C259.305 388.671 264.902 394.268 271.805 394.268C278.709 394.268 284.305 388.671 284.305 381.768V356.768C284.305 349.864 278.709 344.268 271.805 344.268Z" fill="#FF4D1D"/>
</svg>
