<svg width="40" height="40" viewBox="0 0 40 40" fill="none" xmlns="http://www.w3.org/2000/svg">
<g id="BookOpen">
<path id="Vector" d="M18 9.60802C15.8194 8.54634 13.4253 7.99637 11 8.00002C8.49 8.00002 6.114 8.58002 4 9.60802V29.608C6.1806 28.5464 8.57471 27.9964 11 28C14.338 28 17.436 29.02 20 30.77C22.6522 28.9605 25.7894 27.9949 29 28C31.51 28 33.886 28.58 36 29.608V9.60802C33.8194 8.54634 31.4253 7.99637 29 8.00002C26.49 8.00002 24.114 8.58002 22 9.60802V24C22 24.5305 21.7893 25.0392 21.4142 25.4142C21.0391 25.7893 20.5304 26 20 26C19.4696 26 18.9609 25.7893 18.5858 25.4142C18.2107 25.0392 18 24.5305 18 24V9.60802Z" fill="#E6F2EF"/>
</g>
</svg>
