<svg width="168" height="10" viewBox="0 0 168 10" fill="none" xmlns="http://www.w3.org/2000/svg">
<path d="M47.9276 3.69431C45.7541 3.7746 38.7681 4.34125 34.5122 4.78291L27.4305 5.65421C25.1828 5.98032 23.0225 6.33652 20.7873 6.66733C20.2377 6.7543 19.6508 6.82711 19.1265 6.92061L17.5912 7.21234L14.4702 7.78275L12.8844 8.06143C12.3477 8.15021 11.8229 8.2466 11.3616 8.35788L8.42917 8.98455C7.18718 9.24132 5.2827 9.73402 2.75688 9.06592C0.116694 8.37274 -0.117969 7.62632 2.01142 7.11841C3.32461 6.82165 4.53707 6.49586 5.97624 6.23468L10.3061 5.45584L12.4332 5.05662C13.1087 4.91386 13.9345 4.81899 14.6601 4.6922C16.1615 4.45458 17.6127 4.201 19.0009 3.92963C27.4173 2.42577 37.9001 1.59547 48.8476 0.999145C58.7865 0.492365 69.6369 0.394957 80.7784 0.462648L88.7795 0.591181C90.1255 0.617315 91.4229 0.615931 92.7925 0.660157L96.9017 0.78995L101.024 0.921544C102.405 0.973369 103.765 0.998453 105.194 1.08357C108.03 1.22994 110.865 1.38207 113.724 1.54652C116.17 1.66994 118.72 1.88776 121.247 2.08749L128.85 2.71633L136.551 3.48288C139.121 3.74478 141.657 3.96946 144.248 4.27545C146.673 4.54618 149.517 4.72324 152.188 5.01707C154.385 5.23474 158.09 5.71677 160.298 6.03918C161.248 6.17994 162.235 6.33194 163.153 6.42102C167.393 6.8258 168.532 7.20553 167.189 7.8045C166.895 7.93661 167.276 8.20296 166.295 8.19613C166.255 8.19643 166.176 8.19703 166.137 8.19733C163.2 8.3018 160.113 7.71017 157.007 7.34277C141.878 5.6479 126.924 4.37581 112.569 3.58955C110.371 3.4748 108.138 3.32568 105.976 3.23662L99.5125 2.98174C95.1518 2.77793 91.0793 2.75942 86.9727 2.70367C84.6984 2.66356 82.7291 2.78169 80.3677 2.70859L80.4071 2.70829C78.1242 2.72883 75.8653 2.76459 73.5591 2.76416C65.0003 2.87172 56.3922 3.14316 48.9519 3.58637C48.6603 3.60979 48.3505 3.66892 47.9276 3.69431Z" fill="#7EE6C7"/>
</svg>
