<svg width="134" height="66" viewBox="0 0 134 66" fill="none" xmlns="http://www.w3.org/2000/svg">
<g id="Arrow 11">
<path d="M67.443 52.0569C65.5488 52.0624 61.2429 51.875 56.5389 50.9211C51.825 50.0064 46.7816 48.2956 43.0781 46.5737C40.9269 45.5934 38.8463 44.4913 36.8639 43.2664C35.8735 42.6568 34.9403 42.0021 33.9777 41.367C33.0266 40.723 32.136 40.0208 31.2192 39.3496C27.6175 36.5752 24.3593 33.5055 21.387 30.2591C15.4391 23.755 10.6397 16.6103 6.24478 9.387C4.86619 7.12838 2.47302 3.33128 3.85928 2.71565C5.30107 2.07367 7.70388 4.19383 10.1457 8.06412C13.1043 12.7501 16.1349 17.3933 19.5299 21.791C22.8939 26.2027 26.7023 30.3301 31.01 33.9211C34.1656 36.528 37.5699 38.9249 41.1581 40.9573C44.7675 42.9658 48.6702 44.6003 52.7425 45.7945C56.8196 46.9812 61.0761 47.7373 65.377 47.9566C69.6763 48.1701 74.0314 47.8377 78.1871 46.8228C81.9233 45.9329 85.4743 44.4607 88.6603 42.5131C89.4626 42.0095 90.2224 41.5288 90.9058 40.976C91.5974 40.4272 92.2582 39.8434 92.8458 39.2233C94.0078 37.9864 94.934 36.6078 95.2897 35.2401C95.6763 33.8827 95.4678 32.5485 94.7026 31.4477C93.9488 30.3379 92.6139 29.4493 91.0708 28.8887C90.2992 28.6084 89.4735 28.4091 88.6361 28.2922C88.2141 28.2346 87.797 28.1941 87.3569 28.1962C86.9233 28.1965 86.4866 28.161 86.0529 28.1858C84.3051 28.264 82.5625 28.7075 80.9121 29.3537C74.7002 31.8576 70.1146 37.9199 70.2001 43.7283C70.215 46.6824 71.2439 49.5861 72.9785 52.1147C73.8294 53.3954 74.9139 54.5372 76.072 55.6174C77.2416 56.6887 78.5846 57.6058 79.98 58.4362C82.4541 59.8171 85.1235 60.8243 88.0624 61.2986C90.9751 61.7795 94.036 61.8682 97.0759 61.4856C100.116 61.1274 103.15 60.3794 106.035 59.2725C107.488 58.7438 108.881 58.0776 110.259 57.3845C111.612 56.6491 112.936 55.8902 114.185 55.0102C115.385 54.2037 116.579 53.1787 117.748 52.0927C118.908 50.9969 120.024 49.8206 121.086 48.7007C122.877 46.8639 125.462 43.5048 126.899 41.4339C127.532 40.5517 128.176 39.6116 128.654 38.6772C129.731 36.5207 130.436 35.1741 131.051 34.6265C131.659 34.0805 132.154 34.3213 132.595 35.3396C132.786 35.7922 133.429 35.5674 133.137 36.7416C133.122 36.7881 133.101 36.8853 133.086 36.9318C132.363 40.5932 129.903 43.7739 127.521 46.9103C124.591 50.7848 121.073 54.3815 116.931 57.3792C112.786 60.3898 107.994 62.7217 102.879 64.1276C97.7761 65.5302 92.2924 66.0032 87.0322 65.1603C84.4126 64.7515 81.8253 63.9861 79.474 62.8917C77.1178 61.8047 74.9617 60.4102 73.0787 58.7688C71.9039 57.7784 70.8911 56.6428 69.9321 55.4752C69.0386 54.2664 68.2022 53.0126 67.5749 51.6567C66.299 48.9686 65.5866 45.9965 65.8165 42.9679C66.0254 39.9141 67.1304 36.9378 68.865 34.3084C70.6306 31.6895 72.9964 29.3884 75.8314 27.5852C77.4031 26.6351 79.0676 25.7409 80.9133 25.1672C81.8112 24.8287 82.7833 24.6546 83.736 24.461C84.2173 24.3568 84.7128 24.3529 85.2021 24.3017C85.6961 24.2676 86.1837 24.2108 86.6775 24.2501L86.6074 24.2496C88.6583 24.1798 90.7763 24.4474 92.7234 25.1007C94.6655 25.7614 96.5394 26.8001 97.9483 28.3726C99.2712 29.8632 100.084 31.8504 100.025 33.8269C100.016 35.8276 99.2447 37.6802 98.2378 39.2687C97.1984 40.8411 95.9298 42.2212 94.5023 43.4096C93.799 44.0164 93.0374 44.5647 92.2758 45.0885C91.5094 45.5708 90.7626 46.0726 89.9606 46.5028C88.3907 47.4097 86.7429 48.1896 85.0566 48.8572C83.375 49.5419 81.6451 50.0799 79.9041 50.5292C76.4221 51.4277 72.898 51.8541 69.4777 51.9546C68.9658 51.9749 68.2352 52.0631 67.443 52.0569Z" fill="#1DFFBB"/>
<path d="M10.0395 22.2693C10.4244 23.5097 11.7606 27.8997 12.7004 30.6856C14.8666 37.15 17.0492 43.598 18.8255 50.1677C19.1068 51.19 19.6937 52.8985 18.2299 53.3138C16.7075 53.7441 15.4181 52.8684 14.8625 51.097C13.5193 46.8065 12.408 42.4203 10.7221 38.2538C8.2545 32.1594 6.44128 25.8802 4.40286 19.6705C3.4827 16.8797 2.61476 14.0755 1.75988 11.268C1.54577 10.5586 1.32825 9.88672 1.11273 9.12267C0.905341 8.36266 0.709592 7.54468 0.649467 6.63718C0.620209 6.18628 0.625276 5.70832 0.690701 5.2211C0.754612 4.70371 0.890226 4.1925 1.10075 3.69891C1.52341 2.71742 2.21025 1.70535 3.48291 0.959751C3.95177 0.687632 4.48884 0.483715 5.0435 0.366982C5.72379 0.224392 6.4051 0.234313 7.00461 0.326173C7.60412 0.418033 8.12675 0.584457 8.58571 0.773209C9.49711 1.15236 10.2061 1.60748 10.8304 2.03525L14.2835 4.43198C16.5645 6.02092 18.8421 7.62293 21.0576 9.27742C25.0887 12.2848 28.8629 15.5471 32.8057 18.6381C33.7321 19.3679 35.0646 20.0249 36.0918 20.8145C36.9402 21.4664 38.3706 22.5446 39.134 23.267C39.4669 23.5795 39.7982 23.9107 40.1999 24.1446C42.0297 25.2006 42.1021 25.9033 40.3973 26.6794C40.0185 26.8492 39.8309 27.3002 39.2592 27.183C39.2364 27.1765 39.186 27.1711 39.1632 27.1647C37.2518 26.985 36.3225 25.7243 35.0497 24.8077C28.8008 20.3113 22.6223 15.7421 16.4176 11.204L10.7218 7.0069L9.2946 5.96458C8.82154 5.62664 8.31764 5.25377 7.88516 4.9605C7.44454 4.6632 7.02332 4.40985 6.65223 4.25985C6.27954 4.10415 5.99115 4.07366 5.88019 4.1019C5.84596 4.1045 5.82957 4.1209 5.80507 4.13324C5.74454 4.19143 5.72809 4.23228 5.60192 4.40496C5.49211 4.56124 5.3494 4.79924 5.19192 5.05933L5.19684 5.05197C5.14729 5.22347 5.12384 5.38834 5.11988 5.57269C5.11422 5.7758 5.12642 5.99268 5.14839 6.21932C5.20697 6.67498 5.32081 7.1777 5.46216 7.7284C5.59386 8.24489 5.77589 8.81579 5.95782 9.41117C6.13814 10.0008 6.32337 10.5832 6.50369 11.1728C6.8774 12.3489 7.25273 13.5306 7.62482 14.7009C8.37062 17.0473 9.09693 19.3741 9.74369 21.6174C9.81473 21.7948 9.96061 22.0144 10.0395 22.2693Z" fill="#1DFFBB"/>
</g>
</svg>
