<svg width="125" height="17" viewBox="0 0 125 17" fill="none" xmlns="http://www.w3.org/2000/svg">
<g id="Click me, please">
<path id="Vector" opacity="0.95" d="M121.736 10.0719L119.536 10.0499L119.58 12.9319C119.58 13.3279 119.573 13.5333 119.558 13.5479L123.364 13.4819C123.79 13.5259 124.002 13.7093 124.002 14.0319C124.002 14.6479 123.716 14.9559 123.144 14.9559L118.832 14.9999C118.466 14.9999 118.238 14.8606 118.15 14.5819C118.062 14.3033 118.018 13.9293 118.018 13.4599V9.80794C117.828 9.70527 117.732 9.54394 117.732 9.32394C117.732 9.13327 117.813 8.95727 117.974 8.79594C117.93 7.65194 117.908 6.6106 117.908 5.67194C117.908 5.12927 118.238 4.8506 118.898 4.83594H119.514L123.364 4.90194H123.386C123.856 4.97527 124.09 5.19527 124.09 5.56194C124.09 5.8406 124.002 6.0386 123.826 6.15594C123.445 6.36127 122.528 6.46394 121.076 6.46394C120.548 6.46394 120.006 6.44194 119.448 6.39794C119.448 7.7766 119.456 8.51727 119.47 8.61994C119.852 8.6346 120.974 8.64194 122.836 8.64194C123.291 8.7006 123.518 8.90594 123.518 9.25794C123.518 9.43394 123.445 9.6026 123.298 9.76394C123.152 9.92527 122.99 10.0206 122.814 10.0499C122.741 10.0499 122.624 10.0573 122.462 10.0719C122.301 10.0719 122.059 10.0719 121.736 10.0719Z" fill="#7EE6C7"/>
<path id="Vector_2" opacity="0.95" d="M114.886 5.20996C115.429 5.4593 115.7 5.79663 115.7 6.22196C115.7 6.41263 115.634 6.57397 115.502 6.70597C115.385 6.8233 115.26 6.88197 115.128 6.88197C114.894 6.88197 114.52 6.76463 114.006 6.52997C113.522 6.2953 113.053 6.17797 112.598 6.17797C112.173 6.17797 111.733 6.2953 111.278 6.52997C110.824 6.74997 110.596 7.02863 110.596 7.36597C110.596 7.7033 110.875 8.00397 111.432 8.26797C111.946 8.5173 112.606 8.74463 113.412 8.94997C114.204 9.1553 114.71 9.34597 114.93 9.52197C115.15 9.66863 115.334 9.8153 115.48 9.96197C115.612 10.0793 115.73 10.3066 115.832 10.644C115.95 10.9666 116.008 11.3553 116.008 11.81C116.008 12.8806 115.656 13.68 114.952 14.208C114.263 14.7213 113.434 14.978 112.466 14.978C111.513 14.978 110.692 14.824 110.002 14.516C109.313 14.208 108.968 13.8266 108.968 13.372C108.968 13.1666 109.042 12.9833 109.188 12.822C109.335 12.646 109.504 12.558 109.694 12.558C109.738 12.558 109.804 12.5726 109.892 12.602C111.256 13.1446 112.122 13.416 112.488 13.416C113.104 13.416 113.581 13.262 113.918 12.954C114.27 12.646 114.446 12.2426 114.446 11.744C114.446 11.348 114.322 11.0326 114.072 10.798C113.823 10.5633 113.515 10.3873 113.148 10.27C112.796 10.138 112.312 10.006 111.696 9.87397L110.882 9.67597C110.325 9.51463 109.87 9.25797 109.518 8.90597C109.137 8.52463 108.946 7.99663 108.946 7.32197C108.946 6.63263 109.298 6.04596 110.002 5.56196C110.692 5.0633 111.55 4.81396 112.576 4.81396C113.574 4.81396 114.344 4.94596 114.886 5.20996Z" fill="#7EE6C7"/>
<path id="Vector_3" opacity="0.95" d="M101.545 11.0622C101.12 12.6168 100.871 13.7315 100.797 14.4062C100.739 14.7728 100.475 14.9562 100.005 14.9562C99.5506 14.9562 99.3232 14.7655 99.3232 14.3842C99.3232 13.5042 99.7486 11.7442 100.599 9.10415C100.951 7.94549 101.377 6.93349 101.875 6.06815C102.33 5.26149 102.785 4.85815 103.239 4.85815C103.474 4.85815 103.679 4.99749 103.855 5.27615C104.002 5.51082 104.317 6.14882 104.801 7.19015C105.285 8.24615 105.674 9.29482 105.967 10.3362C106.246 11.3188 106.583 12.6682 106.979 14.3842C106.979 14.5602 106.913 14.7068 106.781 14.8242C106.649 14.9415 106.488 15.0002 106.297 15.0002C105.813 15.0002 105.52 14.7948 105.417 14.3842L104.647 11.3702C103.371 11.3702 102.337 11.2675 101.545 11.0622ZM104.273 9.89615C103.965 8.78149 103.599 7.77682 103.173 6.88215C102.689 7.68882 102.293 8.60549 101.985 9.63215C102.631 9.80815 103.393 9.89615 104.273 9.89615Z" fill="#7EE6C7"/>
<path id="Vector_4" opacity="0.95" d="M94.881 10.0719L92.681 10.0499L92.725 12.9319C92.725 13.3279 92.7176 13.5333 92.7029 13.5479L96.5089 13.4819C96.9343 13.5259 97.1469 13.7093 97.1469 14.0319C97.1469 14.6479 96.861 14.9559 96.289 14.9559L91.977 14.9999C91.6103 14.9999 91.383 14.8606 91.295 14.5819C91.207 14.3033 91.1629 13.9293 91.1629 13.4599V9.80794C90.9723 9.70527 90.877 9.54394 90.877 9.32394C90.877 9.13327 90.9576 8.95727 91.1189 8.79594C91.0749 7.65194 91.0529 6.6106 91.0529 5.67194C91.0529 5.12927 91.383 4.8506 92.043 4.83594H92.659L96.5089 4.90194H96.531C97.0003 4.97527 97.235 5.19527 97.235 5.56194C97.235 5.8406 97.147 6.0386 96.971 6.15594C96.5896 6.36127 95.673 6.46394 94.221 6.46394C93.693 6.46394 93.1503 6.44194 92.5929 6.39794C92.5929 7.7766 92.6003 8.51727 92.615 8.61994C92.9963 8.6346 94.1183 8.64194 95.9809 8.64194C96.4356 8.7006 96.6629 8.90594 96.6629 9.25794C96.6629 9.43394 96.5896 9.6026 96.443 9.76394C96.2963 9.92527 96.135 10.0206 95.959 10.0499C95.8856 10.0499 95.7683 10.0573 95.6069 10.0719C95.4456 10.0719 95.2036 10.0719 94.881 10.0719Z" fill="#7EE6C7"/>
<path id="Vector_5" opacity="0.95" d="M89.0995 14.8682C88.4835 14.9708 87.7502 15.0222 86.8995 15.0222L84.8095 15.0002C84.4429 15.0002 84.2375 14.8902 84.1935 14.6702C84.1055 14.0542 84.0615 13.0935 84.0615 11.7882L84.2155 5.40815C84.2155 5.04149 84.4942 4.85815 85.0515 4.85815C85.3302 4.85815 85.5575 4.92415 85.7335 5.05615C85.9095 5.18815 85.9975 5.37149 85.9975 5.60615C85.9829 6.14882 85.9022 6.99949 85.7555 8.15815C85.5942 9.65415 85.5135 10.6955 85.5135 11.2822C85.5135 11.9275 85.5355 12.7048 85.5795 13.6142L88.8355 13.4162C89.3195 13.4162 89.5615 13.6655 89.5615 14.1642C89.5615 14.5602 89.4075 14.7948 89.0995 14.8682Z" fill="#7EE6C7"/>
<path id="Vector_6" opacity="0.95" d="M76.2715 5.75994C76.3008 5.14394 77.1515 4.83594 78.8235 4.83594C79.8795 4.83594 80.7228 5.0706 81.3535 5.53994C81.9988 5.9946 82.3215 6.6106 82.3215 7.38794C82.3215 8.5906 81.9475 9.47794 81.1995 10.0499C80.6568 10.4606 79.9235 10.6659 78.9995 10.6659C78.6035 10.6659 78.2222 10.6366 77.8555 10.5779C77.8995 11.5019 77.9215 12.3013 77.9215 12.9759C77.9215 13.4013 77.9068 13.9073 77.8775 14.4939C77.8482 14.8313 77.6355 14.9999 77.2395 14.9999C76.8582 14.9999 76.6015 14.9266 76.4695 14.7799C76.3375 14.6186 76.2715 14.3693 76.2715 14.0319V5.75994ZM78.6695 6.30994C78.4788 6.30994 78.1928 6.33927 77.8115 6.39794C77.7822 6.74994 77.7675 7.3146 77.7675 8.09194V9.01594C78.0902 9.05994 78.4422 9.08194 78.8235 9.08194C79.4395 9.08194 79.9015 8.99394 80.2095 8.81794C80.6348 8.5686 80.8475 8.1286 80.8475 7.49794V7.29994C80.8182 6.9186 80.4662 6.63994 79.7915 6.46394C79.3955 6.36127 79.0215 6.30994 78.6695 6.30994Z" fill="#7EE6C7"/>
<path id="Vector_7" opacity="0.95" d="M68.2494 12.7122C68.6454 12.7122 68.9094 12.9175 69.0414 13.3282C69.0414 14.2962 68.8874 15.1688 68.5794 15.9462C68.4767 16.2248 68.3227 16.4595 68.1174 16.6502C67.9267 16.8408 67.7214 16.9362 67.5014 16.9362C67.0174 16.9362 66.7754 16.6795 66.7754 16.1662C66.7754 16.0195 66.7974 15.8655 66.8414 15.7042C67.2961 15.2055 67.5234 14.4355 67.5234 13.3942C67.6114 12.9395 67.8534 12.7122 68.2494 12.7122Z" fill="#7EE6C7"/>
<path id="Vector_8" opacity="0.95" d="M62.2677 10.0719L60.0677 10.0499L60.1117 12.9319C60.1117 13.3279 60.1043 13.5333 60.0897 13.5479L63.8957 13.4819C64.321 13.5259 64.5337 13.7093 64.5337 14.0319C64.5337 14.6479 64.2477 14.9559 63.6757 14.9559L59.3637 14.9999C58.997 14.9999 58.7697 14.8606 58.6817 14.5819C58.5937 14.3033 58.5497 13.9293 58.5497 13.4599V9.80794C58.359 9.70527 58.2637 9.54394 58.2637 9.32394C58.2637 9.13327 58.3443 8.95727 58.5057 8.79594C58.4617 7.65194 58.4397 6.6106 58.4397 5.67194C58.4397 5.12927 58.7697 4.8506 59.4297 4.83594H60.0457L63.8957 4.90194H63.9177C64.387 4.97527 64.6217 5.19527 64.6217 5.56194C64.6217 5.8406 64.5337 6.0386 64.3577 6.15594C63.9763 6.36127 63.0597 6.46394 61.6077 6.46394C61.0797 6.46394 60.537 6.44194 59.9797 6.39794C59.9797 7.7766 59.987 8.51727 60.0017 8.61994C60.383 8.6346 61.505 8.64194 63.3677 8.64194C63.8223 8.7006 64.0497 8.90594 64.0497 9.25794C64.0497 9.43394 63.9763 9.6026 63.8297 9.76394C63.683 9.92527 63.5217 10.0206 63.3457 10.0499C63.2723 10.0499 63.155 10.0573 62.9937 10.0719C62.8323 10.0719 62.5903 10.0719 62.2677 10.0719Z" fill="#7EE6C7"/>
<path id="Vector_9" opacity="0.95" d="M55.3283 4.52808C55.5189 4.39608 55.7169 4.33008 55.9223 4.33008C56.3476 4.33008 56.5603 4.53541 56.5603 4.94608C56.6043 7.55674 56.6263 10.6001 56.6263 14.0761C56.6263 14.2961 56.5383 14.5087 56.3623 14.7141C56.2156 14.9047 55.9516 15.0001 55.5703 15.0001C55.2036 15.0001 55.0203 14.7581 55.0203 14.2741C55.0203 12.9687 55.0056 11.8174 54.9763 10.8201C54.9616 10.3067 54.9543 9.48541 54.9543 8.35608C54.4116 9.01608 53.8836 9.47808 53.3703 9.74208C52.8716 10.0061 52.2043 10.1381 51.3683 10.1381C50.5176 10.1381 49.8649 9.91074 49.4103 9.45608C49.4103 11.9201 49.3956 13.4601 49.3663 14.0761C49.3516 14.6921 49.0069 15.0001 48.3323 15.0001C47.9363 15.0001 47.7383 14.7874 47.7383 14.3621L47.8043 10.2921V5.95808C47.8043 5.73808 47.8849 5.54008 48.0463 5.36408C48.2076 5.17341 48.3909 5.07808 48.5963 5.07808C48.8309 5.07808 49.0289 5.12941 49.1903 5.23208C49.3516 5.33474 49.4396 5.47408 49.4543 5.65008C49.4689 6.38341 49.6816 7.05074 50.0923 7.65208C50.5029 8.23874 50.9649 8.53208 51.4783 8.53208C52.9596 8.53208 53.9863 7.73275 54.5583 6.13408L54.7343 5.56208C54.8663 5.18074 54.9469 4.96808 54.9763 4.92408C55.0349 4.77741 55.1523 4.64541 55.3283 4.52808Z" fill="#7EE6C7"/>
<path id="Vector_10" opacity="0.95" d="M33.9071 15C33.4671 15 33.2544 14.7726 33.2691 14.318V13.152C33.2691 12.3453 33.2251 11.1206 33.1371 9.47796C33.0491 7.7473 32.9758 6.70597 32.9171 6.35397C32.8584 5.9873 32.8291 5.7013 32.8291 5.49597C32.8291 5.36396 32.9244 5.22463 33.1151 5.07796C33.3058 4.91663 33.5038 4.83597 33.7091 4.83597C33.9584 4.83597 34.1564 4.96797 34.3031 5.23197C34.6111 5.90663 34.7651 7.31463 34.7651 9.45597C35.7624 8.63463 36.4958 7.9673 36.9651 7.45397C37.5371 6.83797 38.1018 6.11196 38.6591 5.27596C38.8644 4.96796 39.1064 4.81396 39.3851 4.81396C39.9424 4.81396 40.2211 4.9973 40.2211 5.36397C40.2211 6.06797 39.2751 7.38797 37.3831 9.32397C38.1751 10.028 38.9304 10.952 39.6491 12.096C40.3678 13.1813 40.7271 13.8706 40.7271 14.164C40.7271 14.4133 40.6538 14.6113 40.5071 14.758C40.3604 14.9046 40.1771 14.978 39.9571 14.978C39.7664 14.978 39.5464 14.8313 39.2971 14.538C39.0624 14.23 38.7178 13.7166 38.2631 12.998C37.8964 12.382 37.5664 11.898 37.2731 11.546C36.9651 11.1353 36.5764 10.7393 36.1071 10.358C35.6818 10.7393 35.2491 11.084 34.8091 11.392L34.8751 14.274C34.8751 14.758 34.5524 15 33.9071 15Z" fill="#7EE6C7"/>
<path id="Vector_11" opacity="0.95" d="M30.4485 6.46407C30.2431 6.64007 30.0305 6.72807 29.8105 6.72807L28.0285 6.50807C25.6525 6.50807 24.4645 7.69607 24.4645 10.0721C24.4645 11.2747 24.8238 12.2281 25.5425 12.9321C25.8945 13.2987 26.2611 13.4821 26.6425 13.4821C27.0091 13.4821 27.6765 13.3134 28.6445 12.9761C29.6125 12.6387 30.1258 12.4701 30.1845 12.4701C30.5805 12.4701 30.7785 12.6534 30.7785 13.0201C30.7785 13.3281 30.6098 13.5921 30.2725 13.8121C28.4245 14.5894 27.0971 14.9781 26.2905 14.9781C25.7918 14.9781 25.3005 14.8167 24.8165 14.4941C24.3325 14.1714 23.9511 13.7534 23.6725 13.2401C23.1005 12.2281 22.8145 11.1427 22.8145 9.98407C22.8145 8.41474 23.2838 7.18274 24.2225 6.28807C25.1758 5.37874 26.3785 4.92407 27.8305 4.92407C28.6958 4.92407 29.5391 5.06341 30.3605 5.34207V5.36407C30.6245 5.48141 30.7565 5.65741 30.7565 5.89207C30.7565 6.08274 30.6538 6.27341 30.4485 6.46407Z" fill="#7EE6C7"/>
<path id="Vector_12" opacity="0.95" d="M20.628 14.7799C20.4227 14.9266 20.21 14.9999 19.99 14.9999C19.5794 14.9999 19.374 14.8239 19.374 14.4719L19.462 5.51794C19.462 5.3126 19.528 5.15127 19.66 5.03394C19.8067 4.90194 19.99 4.83594 20.21 4.83594C20.43 4.83594 20.6134 4.88727 20.76 4.98994C20.9214 5.10727 21.0094 5.28327 21.024 5.51794C21.0387 5.67927 21.046 6.2146 21.046 7.12394C21.046 11.1279 21.0167 13.5113 20.958 14.2739C20.9434 14.4499 20.8334 14.6186 20.628 14.7799Z" fill="#7EE6C7"/>
<path id="Vector_13" opacity="0.95" d="M17.7284 14.8682C17.1124 14.9708 16.3791 15.0222 15.5284 15.0222L13.4384 15.0002C13.0718 15.0002 12.8664 14.8902 12.8224 14.6702C12.7344 14.0542 12.6904 13.0935 12.6904 11.7882L12.8444 5.40815C12.8444 5.04149 13.1231 4.85815 13.6804 4.85815C13.9591 4.85815 14.1864 4.92415 14.3624 5.05615C14.5384 5.18815 14.6264 5.37149 14.6264 5.60615C14.6118 6.14882 14.5311 6.99949 14.3844 8.15815C14.2231 9.65415 14.1424 10.6955 14.1424 11.2822C14.1424 11.9275 14.1644 12.7048 14.2084 13.6142L17.4644 13.4162C17.9484 13.4162 18.1904 13.6655 18.1904 14.1642C18.1904 14.5602 18.0364 14.7948 17.7284 14.8682Z" fill="#7EE6C7"/>
<path id="Vector_14" opacity="0.95" d="M2.81583 2.41606C4.07716 1.21339 5.6025 0.612061 7.39183 0.612061C8.34516 0.612061 9.4305 0.802727 10.6478 1.18406C10.8972 1.37473 11.0218 1.59473 11.0218 1.84406C11.0218 2.09339 10.9118 2.31339 10.6918 2.50406C10.4718 2.68006 10.1932 2.76806 9.85583 2.76806C9.0345 2.56273 8.29383 2.46006 7.63383 2.46006C6.03516 2.46006 4.8325 2.92939 4.02583 3.86806C3.2045 4.82139 2.79383 6.21473 2.79383 8.04806C2.79383 9.91073 3.27783 11.3554 4.24583 12.3821C4.7445 12.9247 5.33849 13.1961 6.02783 13.1961C6.68783 13.1961 7.78783 12.8294 9.32783 12.0961C9.8705 11.8467 10.2225 11.7221 10.3838 11.7221C10.7652 11.7221 10.9558 11.9201 10.9558 12.3161C10.9558 12.7121 10.7725 13.0421 10.4058 13.3061C9.20316 13.9367 8.22049 14.3841 7.45783 14.6481C6.75383 14.8681 6.14516 14.9781 5.63183 14.9781C4.57583 14.9781 3.67383 14.5894 2.92583 13.8121C1.59116 12.3894 0.923828 10.4314 0.923828 7.93806C0.923828 5.44473 1.55449 3.60406 2.81583 2.41606Z" fill="#7EE6C7"/>
</g>
</svg>
