<svg width="36" height="74" viewBox="0 0 36 74" fill="none" xmlns="http://www.w3.org/2000/svg">
<g id="Doodle 5">
<path id="Doodle" d="M4.57202 6.15663C6.35649 5.61108 8.16004 5.08313 9.95405 4.56398C11.061 4.24721 12.1966 4.05363 13.2367 3.51688C13.523 3.3673 13.7425 3.00652 14.0955 3.09451H14.086C14.3914 2.94493 14.6776 2.73376 15.0021 2.66336C16.2235 2.38179 17.4545 1.88903 18.676 1.77464C18.7237 1.76584 18.7619 1.66905 18.8287 1.65145C19.1531 1.58106 20.3364 1.38748 21.0616 1.1763C22.7507 0.692351 24.4588 0.269994 26.3482 0.463575C26.6441 0.489973 30.547 0.120403 31.1005 2.03862C31.673 4.04482 28.2663 5.55828 27.7796 5.59348C26.6059 5.69027 25.3367 5.51428 24.3252 6.13902C22.8366 7.05413 21.1284 7.18613 19.5253 7.69648C18.0844 8.15403 16.5862 8.41801 15.1548 8.89316C13.8093 9.34192 12.5592 10.1162 11.1755 10.4418C9.98268 10.7234 8.64672 10.521 7.40618 10.6354C7.11036 10.6618 6.88133 11.1017 6.56642 11.1457C6.30877 11.1809 5.87935 11.2777 5.57398 11.1721C5.44039 11.1281 5.3068 11.0666 5.22091 11.1633C4.82967 11.6121 0.726344 12.1048 0.077447 9.76427C-0.57145 7.47649 3.02612 6.63178 4.57202 6.15663Z" fill="#1DFFBB"/>
<path id="Doodle_2" d="M10.4397 32.0444C12.0333 31.9828 13.6174 31.9388 15.211 31.9036C16.1843 31.886 17.1577 31.9916 18.1406 31.7453C18.4078 31.6749 18.6845 31.3845 18.9517 31.5693C19.238 31.5077 19.5242 31.3757 19.801 31.3933C20.8697 31.4373 21.9862 31.2877 23.0073 31.4901C23.0455 31.4989 23.1027 31.4109 23.16 31.4109C23.4463 31.4285 24.4482 31.5429 25.0971 31.5341C26.5953 31.5077 28.084 31.5429 29.5535 32.2116C29.7825 32.3172 33.0366 32.9595 32.9793 34.9569C32.9221 37.0247 29.7635 37.5967 29.3627 37.5175C28.3893 37.3063 27.4064 36.8048 26.4235 37.1479C24.9826 37.6407 23.5608 37.3239 22.1294 37.4031C20.8411 37.4735 19.5624 37.3327 18.2837 37.4207C17.0813 37.4999 15.8599 37.9222 14.6575 37.8782C13.6174 37.8343 12.5963 37.2975 11.5562 37.0951C11.308 37.0423 11.0122 37.4119 10.745 37.3679C10.5256 37.3327 10.1534 37.3151 9.94345 37.1391C9.84803 37.0599 9.75261 36.9631 9.65719 37.0335C9.21823 37.3591 5.78289 36.7784 5.86877 34.3586C5.92603 31.9828 9.056 32.0972 10.4397 32.0444Z" fill="#1DFFBB"/>
<path id="Doodle_3" d="M9.45082 61.9015C11.388 62.3942 13.3251 62.9045 15.2527 63.4237C16.436 63.7405 17.5716 64.1892 18.8312 64.286C19.1747 64.3124 19.5946 64.1276 19.8618 64.3916H19.8523C20.2149 64.4268 20.5966 64.4092 20.9401 64.5148C22.2093 64.9284 23.612 65.1747 24.7762 65.7203C24.824 65.7379 24.9194 65.6763 24.9862 65.7027C25.3202 65.8171 26.4939 66.2746 27.2859 66.4858C29.099 66.9786 30.8835 67.5329 32.458 68.6856C32.7062 68.8616 36.4278 70.6214 35.7407 72.5044C35.0155 74.4666 31.0362 73.9211 30.5782 73.6923C29.4617 73.1556 28.4406 72.3372 27.1523 72.3108C25.2534 72.2844 23.6407 71.4837 21.8944 71.0614C20.3198 70.683 18.8217 70.1023 17.2471 69.7415C15.768 69.3983 14.1649 69.3807 12.7239 68.9232C11.4834 68.5272 10.4146 67.6561 9.23133 67.0929C8.9546 66.961 8.47747 67.1985 8.16256 67.0753C7.90491 66.9697 7.46595 66.8202 7.26556 66.5738C7.17967 66.4682 7.09379 66.345 6.95065 66.3802C6.32084 66.5474 2.35111 64.7876 3.20995 62.4998C4.03061 60.2736 7.77132 61.4791 9.45082 61.9015Z" fill="#1DFFBB"/>
</g>
</svg>
