<svg width="41" height="72" viewBox="0 0 41 72" fill="none" xmlns="http://www.w3.org/2000/svg">
<g id="Doodle 4">
<path id="Doodle" d="M17.5266 3.15964C19.2348 4.49711 20.9238 5.84337 22.6129 7.19844C23.6435 8.03436 24.5882 8.95827 25.7905 9.627C26.115 9.81178 26.6112 9.82939 26.7639 10.199V10.1901C27.1074 10.3925 27.4987 10.5421 27.7849 10.7973C28.8728 11.7564 30.142 12.6187 31.0676 13.657C31.1058 13.701 31.2298 13.6834 31.2871 13.7362C31.5734 13.9914 32.5372 14.9505 33.2242 15.5048C34.8083 16.7807 36.3351 18.1094 37.4039 19.8956C37.5661 20.1772 40.5148 23.4945 39.0261 24.9375C37.4802 26.4422 33.7777 24.128 33.4151 23.7144C32.5467 22.7025 31.8787 21.4795 30.6096 20.8811C28.7488 20.0012 27.4891 18.5229 25.9432 17.3439C24.55 16.2792 23.3095 15.0649 21.9067 14.009C20.5898 13.0235 19.0153 12.2844 17.7843 11.2021C16.7251 10.2693 16.038 8.97586 15.1028 7.91996C14.8833 7.67359 14.3108 7.68239 14.0531 7.41842C13.8432 7.19844 13.471 6.86407 13.3756 6.53851C13.3374 6.39772 13.2993 6.23934 13.1561 6.21294C12.4691 6.08095 9.29138 2.64927 11.1045 0.907042C12.8603 -0.808792 16.0475 1.99815 17.5266 3.15964Z" fill="#1DFFBB"/>
<path id="Doodle_2" d="M16.1995 34.1844C17.8503 34.5891 19.5012 35.0115 21.1425 35.4426C22.154 35.7066 23.1178 36.0938 24.1962 36.1466C24.492 36.1642 24.8641 35.9618 25.0836 36.2082C25.3985 36.2346 25.7325 36.1906 26.0188 36.2874C27.0971 36.6393 28.2995 36.8241 29.2824 37.3169C29.3205 37.3344 29.4064 37.2641 29.4637 37.2905C29.75 37.3872 30.7424 37.792 31.4104 37.968C32.9563 38.3816 34.4735 38.8479 35.7713 39.9214C35.9717 40.0886 39.1112 41.6636 38.4242 43.5466C37.7085 45.5089 34.2827 45.1305 33.8914 44.9369C32.9563 44.453 32.107 43.6874 30.9905 43.7226C29.3492 43.7754 27.9941 43.0539 26.4959 42.7107C25.1504 42.4028 23.8813 41.8924 22.5357 41.602C21.2666 41.3293 19.8924 41.3733 18.671 40.9773C17.6213 40.6341 16.7338 39.8246 15.7414 39.3231C15.5028 39.2087 15.083 39.4638 14.8158 39.3495C14.5963 39.2527 14.2241 39.1207 14.0619 38.8919C13.9951 38.7951 13.9188 38.6719 13.8043 38.7071C13.2508 38.8919 9.90133 37.3256 10.7602 35.0467C11.5904 32.8029 14.7681 33.8324 16.1995 34.1844Z" fill="#1DFFBB"/>
<path id="Doodle_3" d="M6.38791 66.3128C8.75447 65.8289 11.121 65.3713 13.4972 64.9138C14.9572 64.6322 16.4363 64.4826 17.8486 63.9811C18.2303 63.8403 18.5834 63.4883 19.0223 63.5939H19.0128C19.4231 63.4531 19.8239 63.2595 20.2438 63.1891C21.8469 62.9516 23.4883 62.5028 25.0628 62.4324C25.1201 62.4324 25.1868 62.3268 25.2823 62.3092C25.7117 62.2476 27.2385 62.098 28.2023 61.9133C30.4353 61.4909 32.6778 61.1301 35.0348 61.3941C35.407 61.4381 40.4264 61.2093 40.7795 63.1715C41.1516 65.2129 36.5616 66.612 35.9318 66.6296C34.4241 66.6824 32.8496 66.4536 31.4468 67.0432C29.3951 67.9055 27.2003 67.9759 25.0723 68.4246C23.1638 68.8294 21.2171 69.0406 19.3086 69.4629C17.5241 69.8589 15.7969 70.598 13.9838 70.8708C12.4188 71.1084 10.7584 70.8532 9.16481 70.9236C8.79265 70.9412 8.41094 71.3723 8.01015 71.4075C7.67616 71.4339 7.11315 71.5131 6.75053 71.39C6.59785 71.3372 6.42608 71.2667 6.30203 71.3635C5.71993 71.8035 0.442863 72.1379 0.0229885 69.7533C-0.368259 67.4479 4.33625 66.7352 6.38791 66.3128Z" fill="#1DFFBB"/>
</g>
</svg>
